<?xml version="1.0" encoding="utf-8"?><svg xmlns="http://www.w3.org/2000/svg" xmlns:xlink="http://www.w3.org/1999/xlink" width="1536" height="754" preserveAspectRatio="xMidYMid" viewBox="0 0 1536 754" style="z-index:1;margin-right:-2px;display:block;background-repeat-y:initial;background-repeat-x:initial;background-color:rgb(255, 255, 255);animation-play-state:paused" ><g transform="translate(768,377) scale(1,1) translate(-768,-377)" style="transform:matrix(1, 0, 0, 1, 0, 0);animation-play-state:paused" ><g transform="translate(1192.787334653171,47.501167956159975) scale(100)" opacity="0.37" style="transform:matrix(100, 0, 0, 100, 1192.79, 47.5012);opacity:0.37;animation-play-state:paused" ><path d="M4.972799999999999 0 C4.972799999999999 1.2364799999999998 5.6231740135510275 1.8187769087286167 5.004934013551027 2.8895999999999993 S3.557223091271383 3.6883311279392554 2.4864 4.306571127939256 S1.2364800000000002 5.7791999999999994 3.5387393908161913e-16 5.7791999999999994 S-1.4155769087286163 4.924811127939256 -2.486399999999999 4.3065711279392564 S-4.386694013551026 3.960423091271384 -5.0049340135510265 2.8896000000000015 S-4.972799999999999 1.2364800000000005 -4.972799999999999 6.089923602799958e-16 S-5.6231740135510275 -1.8187769087286152 -5.004934013551028 -2.889599999999998 S-3.5572230912713843 -3.688331127939255 -2.486400000000002 -4.306571127939256 S-1.236480000000001 -5.7791999999999994 -1.0616218172448573e-15 -5.7791999999999994 S1.4155769087286136 -4.9248111279392575 2.4863999999999966 -4.306571127939258 S4.3866940135510255 -3.9604230912713847 5.004934013551026 -2.8896000000000024 S4.972799999999999 -1.236480000000001 4.972799999999999 -1.2179847205599915e-15" fill="#ff00ff" stroke-width="0" transform="matrix(1,0,0,1,0,0)" style="transform:matrix(1, 0, 0, 1, 0, 0);animation-play-state:paused" ></path></g>
<g transform="translate(1277.7448015838054,-18.39859845260804) scale(100)" opacity="0.37" style="transform:matrix(100, 0, 0, 100, 1277.74, -18.3986);opacity:0.37;animation-play-state:paused" ><path d="M5.967359999999999 0 C5.967359999999999 1.4837759999999998 6.747808816261232 2.18253229047434 6.0059208162612325 3.467519999999999 S4.268667709525659 4.425997353527107 2.98368 5.167885353527107 S1.4837760000000002 6.935039999999999 4.2464872689794297e-16 6.935039999999999 S-1.6986922904743391 5.909773353527107 -2.9836799999999983 5.167885353527107 S-5.264032816261231 4.752507709525661 -6.005920816261232 3.4675200000000017 S-5.967359999999999 1.4837760000000004 -5.967359999999999 7.307908323359949e-16 S-6.747808816261233 -2.1825322904743385 -6.005920816261233 -3.4675199999999977 S-4.268667709525661 -4.425997353527106 -2.9836800000000023 -5.167885353527106 S-1.483776000000001 -6.935039999999999 -1.2739461806938288e-15 -6.935039999999999 S1.698692290474336 -5.909773353527108 2.9836799999999957 -5.16788535352711 S5.26403281626123 -4.752507709525661 6.005920816261231 -3.4675200000000026 S5.967359999999999 -1.4837760000000013 5.967359999999999 -1.4615816646719897e-15" fill="#00c6ff" stroke-width="0" transform="matrix(1,0,0,1,0,0)" style="transform:matrix(1, 0, 0, 1, 0, 0);animation-play-state:paused" ></path></g>
<g transform="translate(1481.6427222173274,-176.55803783365127) scale(100)" opacity="0.37" style="transform:matrix(100, 0, 0, 100, 1481.64, -176.558);opacity:0.37;animation-play-state:paused" ><path d="M8.354303999999999 0 C8.354303999999999 2.0772863999999993 9.446932342765724 3.055545206664075 8.408289142765724 4.8545279999999975 S5.976134793335922 6.19639629493795 4.177152 7.23503949493795 S2.0772863999999998 9.709055999999997 5.9450821765712e-16 9.709055999999997 S-2.3781692066640754 8.27368269493795 -4.177151999999998 7.235039494937951 S-7.369645942765723 6.653510793335924 -8.408289142765723 4.854528000000002 S-8.354303999999999 2.0772864 -8.354303999999999 1.0231071652703928e-15 S-9.446932342765725 -3.055545206664073 -8.408289142765726 -4.854527999999996 S-5.976134793335925 -6.196396294937948 -4.177152000000003 -7.235039494937949 S-2.077286400000001 -9.709055999999997 -1.78352465297136e-15 -9.709055999999997 S2.378169206664071 -8.273682694937952 4.177151999999994 -7.235039494937953 S7.36964594276572 -6.653510793335925 8.408289142765721 -4.854528000000003 S8.354303999999999 -2.0772864000000015 8.354303999999999 -2.0462143305407856e-15" fill="#00ffff" stroke-width="0" transform="matrix(1,0,0,1,0,0)" style="transform:matrix(1, 0, 0, 1, 0, 0);animation-play-state:paused" ></path></g></g></svg>